<svg width="104" height="105" fill="none" xmlns="http://www.w3.org/2000/svg"><path fill-rule="evenodd" clip-rule="evenodd" d="M67.015 92.956c-.024.108-.063.218-.095.325.034-.114.072-.227.096-.343l-.001.018zm-.246.794c-.043.105-.101.21-.152.312.053-.108.112-.217.157-.328a.071.071 0 00-.005.016zm-.406.79c-.06.096-.133.19-.199.285.07-.097.144-.197.205-.299l-.005.014zm-.603.815c-.063.073-.133.145-.2.216.07-.074.142-.15.205-.225a.059.059 0 00-.005.009zm-.54.58c-.126.12-.276.237-.416.355.144-.122.296-.24.425-.365l-.009.01zm-1.192.951l-.17.12c.06-.043.118-.085.177-.125a.03.03 0 00-.007.005zm3.047-4.398c.22-2.257-1.364-4.553-4.787-6.275-6.41-3.228-16.76-3.228-23.123-.005-3.17 1.607-4.75 3.712-4.747 5.82l-.002-.021-.01 2.915c-.006 2.128 1.604 4.261 4.83 5.886.386.192.787.374 1.2.546.14.055.286.108.43.162.242.094.48.192.729.277.028.01.06.017.088.026.569.193 1.157.364 1.76.518.046.013.09.029.137.041.135.032.275.056.41.087.34.078.68.153 1.027.219.09.018.177.041.268.058.133.023.27.04.405.06.288.049.578.094.87.134.117.016.229.037.345.052.128.016.258.023.385.038.27.029.54.055.813.079.132.011.26.029.392.039.123.007.247.008.37.017.273.016.546.027.82.038.141.005.28.017.42.019.113.003.224-.002.336-.001.3.004.597.001.895-.005.149-.001.296.004.445-.001.086-.002.172-.012.26-.016.37-.014.738-.037 1.106-.062.148-.012.298-.015.447-.027.046-.004.09-.011.137-.015a30.09 30.09 0 001.855-.228c.031-.004.063-.006.093-.011.179-.027.35-.067.527-.099.303-.053.606-.104.903-.168.216-.045.427-.098.64-.15.284-.068.567-.134.843-.21.06-.016.123-.029.183-.044.099-.029.19-.068.289-.096.439-.13.868-.272 1.286-.426.154-.056.31-.112.46-.171a19.11 19.11 0 001.544-.68l.2-.103c.147-.077.273-.162.412-.24.203-.114.41-.228.597-.349.162-.102.305-.209.456-.314.172-.12.347-.238.503-.362.032-.025.07-.047.102-.073.21-.17.403-.342.587-.516.038-.037.07-.072.106-.108.109-.107.22-.216.32-.325.043-.049.072-.1.113-.147.14-.164.264-.329.383-.495.05-.072.116-.14.162-.211.022-.036.035-.072.058-.108.09-.147.165-.297.24-.446.043-.086.1-.17.137-.257.013-.029.017-.058.029-.087.059-.142.099-.287.141-.43.028-.096.072-.189.094-.284.006-.026.004-.052.011-.077.032-.152.044-.303.06-.454.009-.097.033-.193.037-.288l.002-.119v-.006l.008-2.917c0 .132-.024.264-.037.396z" fill="#250F8A"/><mask id="mask0_0_1514" style="mask-type:alpha" maskUnits="userSpaceOnUse" x="34" y="91" width="33" height="12"><path fill-rule="evenodd" clip-rule="evenodd" d="M34.228 94.383c-.007 2.144 1.575 4.29 4.742 5.926 6.29 3.249 16.453 3.249 22.7 0 3.103-1.613 4.657-3.724 4.663-5.84.002-.978.007-1.958.01-2.937-.008 2.115-1.56 4.228-4.664 5.839-6.248 3.248-16.412 3.248-22.699 0-3.17-1.634-4.75-3.782-4.744-5.924" fill="#fff"/></mask><g mask="url(#mask0_0_1514)"><path fill-rule="evenodd" clip-rule="evenodd" d="M66.342 91.536l-.01 2.938-.001.125.01-2.936.001-.127z" fill="#872D24"/></g><mask id="mask1_0_1514" style="mask-type:alpha" maskUnits="userSpaceOnUse" x="34" y="91" width="33" height="12"><path fill-rule="evenodd" clip-rule="evenodd" d="M34.228 94.383c-.007 2.144 1.575 4.29 4.742 5.926 6.29 3.249 16.453 3.249 22.7 0 3.103-1.613 4.657-3.724 4.663-5.84.002-.978.007-1.958.01-2.937-.008 2.115-1.56 4.228-4.664 5.839-6.248 3.248-16.412 3.248-22.699 0-3.17-1.634-4.75-3.782-4.744-5.924" fill="#fff"/></mask><g mask="url(#mask1_0_1514)"><path fill-rule="evenodd" clip-rule="evenodd" d="M66.34 91.66l-.009 2.936a4.45 4.45 0 01-.105.824l.01-2.938c.06-.273.095-.548.105-.823z" fill="#250F8A"/></g><path fill-rule="evenodd" clip-rule="evenodd" d="M66.235 92.482l-.01 2.939c-.06.27-.147.54-.258.807l.009-2.938a4.88 4.88 0 00.26-.808z" fill="#250F8A"/><path fill-rule="evenodd" clip-rule="evenodd" d="M65.976 93.29l-.01 2.938a5.548 5.548 0 01-.427.817l.01-2.938c.168-.27.31-.542.427-.816zm-.428.817l-.01 2.938c-.183.29-.399.577-.645.858l.009-2.937a6.87 6.87 0 00.646-.859zm-.646.859l-.01 2.936a8.84 8.84 0 01-.994.958l.009-2.938a8.84 8.84 0 00.995-.956z" fill="#250F8A"/><path fill-rule="evenodd" clip-rule="evenodd" d="M63.906 95.922l-.008 2.938c-.576.475-1.253.926-2.033 1.347l.01-2.938a12.49 12.49 0 002.031-1.347zm-2.032 1.347l-.01 2.937-.195.104a19.442 19.442 0 01-3.514 1.383l.008-2.937a19.345 19.345 0 003.515-1.385c.068-.034.131-.068.196-.102zm-3.711 1.487l-.009 2.937a25.45 25.45 0 01-3.04.676l.009-2.937a25.676 25.676 0 003.04-.676z" fill="#250F8A"/><path fill-rule="evenodd" clip-rule="evenodd" d="M55.123 99.433l-.008 2.936c-.673.108-1.357.194-2.047.256l.008-2.938c.691-.06 1.376-.146 2.047-.254zm-2.047.253l-.008 2.939c-.59.051-1.185.087-1.78.105l.008-2.936c.597-.019 1.19-.055 1.78-.108zm-1.78.108l-.009 2.936c-.548.018-1.097.02-1.645.008l.01-2.937c.547.013 1.096.01 1.644-.007zm-1.644.006l-.01 2.937a31.96 31.96 0 01-1.58-.074l.009-2.938a33.15 33.15 0 001.58.076zm-1.582-.075l-.008 2.938a30.9 30.9 0 01-1.562-.157l.01-2.938c.516.066 1.037.118 1.56.157zm-1.56-.157l-.01 2.937a28.257 28.257 0 01-1.59-.247l.007-2.937c.525.097 1.055.178 1.593.247z" fill="#250F8A"/><path fill-rule="evenodd" clip-rule="evenodd" d="M44.918 99.321l-.01 2.937a26.167 26.167 0 01-1.673-.367l.009-2.937c.548.14 1.106.26 1.674.367z" fill="#250F8A"/><path fill-rule="evenodd" clip-rule="evenodd" d="M43.244 98.954l-.01 2.938a23.185 23.185 0 01-1.948-.589l.008-2.937c.63.221 1.28.418 1.95.588z" fill="#250F8A"/><path fill-rule="evenodd" clip-rule="evenodd" d="M41.295 98.365l-.01 2.937a18.542 18.542 0 01-2.315-.992c-3.168-1.636-4.749-3.783-4.743-5.928l.009-2.936c-.007 2.143 1.575 4.29 4.743 5.925.725.374 1.5.707 2.316.994z" fill="#250F8A"/><path fill-rule="evenodd" clip-rule="evenodd" d="M57.677 95.819h7.07c3.033-3.095 2.02-6.967-3.055-9.552-3.5-1.783-8.188-2.578-12.743-2.39l-6.122 4.376 14.85 7.566z" fill="#02ECF1"/><path fill-rule="evenodd" clip-rule="evenodd" d="M57.678 95.819l-14.851-7.566 6.122-4.375c-3.687.151-7.286.943-10.098 2.385-6.284 3.224-6.25 8.451.082 11.678 6.324 3.223 16.55 3.223 22.833 0 1.246-.638 2.232-1.358 2.98-2.122h-7.068z" fill="#02ECF1"/><path fill-rule="evenodd" clip-rule="evenodd" d="M57.783 62.777l2.142-1.1-.106 33.043-2.141 1.099.105-33.042z" fill="#4F34CE"/><path fill-rule="evenodd" clip-rule="evenodd" d="M42.934 55.208l2.141-1.099 14.85 7.568-2.142 1.1-14.85-7.57z" fill="#263543"/><path fill-rule="evenodd" clip-rule="evenodd" d="M57.783 62.777l-.105 33.042-14.851-7.566.106-33.045 14.85 7.57z" fill="#250F8A"/><path fill-rule="evenodd" clip-rule="evenodd" d="M2.649 2.085l.012-.002c-.088.018-.164.055-.247.08.079-.023.15-.061.235-.078zm1.364.1l.005.002c-.082-.024-.155-.029-.236-.045.079.016.152.021.231.044zm-.706-.132h.012c-.094-.006-.177.01-.266.01.085 0 .164-.016.254-.01zm96.054 101.584c.026-.054.044-.121.066-.178-.035.089-.058.193-.103.274.017-.028.023-.066.037-.096zm-.19.309c-.066.092-.123.194-.2.271.077-.077.135-.179.2-.271zm4.174-51.253a5.108 5.108 0 00-.049-.436c-.004-.026-.011-.052-.015-.079a.675.675 0 01-.013-.065c-.014-.07-.025-.14-.041-.21a4.838 4.838 0 00-.083-.315c-.025-.094-.056-.187-.087-.28l-.001-.004-.004-.01a6.81 6.81 0 00-.332-.8l-.013-.025-.009-.018a8.452 8.452 0 00-.411-.73l-.041-.06-.025-.036c-.036-.055-.072-.112-.11-.166a8.065 8.065 0 00-.426-.56l-.01-.011a6.928 6.928 0 00-.638-.682l-.01-.007c-.159-.15-.327-.28-.496-.412-.077-.064-.151-.133-.231-.192a5.935 5.935 0 00-.782-.48L8.4.68a4.913 4.913 0 00-.63-.27C7.73.397 7.692.39 7.652.376l-.07-.022c-.045-.012-.09-.03-.135-.04a4.14 4.14 0 00-.518-.09l-.03-.002h-.022a2.474 2.474 0 00-.172-.008 2.808 2.808 0 00-.406.026l-.053.01-.027.006c-.036.007-.073.011-.108.02a2.458 2.458 0 00-.36.12L5.66.442l-1.784.916-1.785.916c.002-.002.004-.002.007-.003C1.404 2.62.972 3.377.968 4.453L.816 52.014c-.005 1.533.867 3.292 2.131 4.575.515.524 1.09.979 1.706 1.291l91.118 46.437c.56.285 1.09.427 1.57.453.56.031 1.04-.118 1.422-.402-.084.062-.16.137-.254.185.178-.093.358-.183.536-.275a7.43 7.43 0 01.178-.09l1.428-.734 1.25-.641.179-.092c.69-.354 1.118-1.107 1.121-2.179l.153-47.562c0-.094-.004-.19-.009-.287z" fill="#250F8A"/><mask id="mask2_0_1514" style="mask-type:alpha" maskUnits="userSpaceOnUse" x="1" y="0" width="8" height="3"><path fill-rule="evenodd" clip-rule="evenodd" d="M5.422.436c-.601.31-1.204.617-1.806.924-.602.306-1.202.614-1.806.92.708-.36 1.687-.31 2.771.241L8.193.678C7.562.358 6.968.206 6.44.206c-.38 0-.724.079-1.02.23z" fill="#fff"/></mask><g mask="url(#mask2_0_1514)"><path fill-rule="evenodd" clip-rule="evenodd" d="M1.81 2.28L5.42.437c.031-.014.062-.03.094-.042L1.903 2.237c-.032.015-.063.028-.092.044z" fill="#1A242E"/></g><mask id="mask3_0_1514" style="mask-type:alpha" maskUnits="userSpaceOnUse" x="1" y="0" width="8" height="3"><path fill-rule="evenodd" clip-rule="evenodd" d="M5.422.436c-.601.31-1.204.617-1.806.924-.602.306-1.202.614-1.806.92.708-.36 1.687-.31 2.771.241L8.193.678C7.562.358 6.968.206 6.44.206c-.38 0-.724.079-1.02.23z" fill="#fff"/></mask><g mask="url(#mask3_0_1514)"><path fill-rule="evenodd" clip-rule="evenodd" d="M1.902 2.242L5.513.399c.058-.028.118-.05.18-.072L2.08 2.174c-.06.02-.12.043-.179.068z" fill="#1B252F"/></g><mask id="mask4_0_1514" style="mask-type:alpha" maskUnits="userSpaceOnUse" x="1" y="0" width="8" height="3"><path fill-rule="evenodd" clip-rule="evenodd" d="M5.422.436c-.601.31-1.204.617-1.806.924-.602.306-1.202.614-1.806.92.708-.36 1.687-.31 2.771.241L8.193.678C7.562.358 6.968.206 6.44.206c-.38 0-.724.079-1.02.23z" fill="#fff"/></mask><g mask="url(#mask4_0_1514)"><path fill-rule="evenodd" clip-rule="evenodd" d="M2.082 2.17L5.692.327c.06-.021.122-.038.185-.052L2.266 2.118a1.84 1.84 0 00-.184.053z" fill="#1C2631"/></g><mask id="mask5_0_1514" style="mask-type:alpha" maskUnits="userSpaceOnUse" x="1" y="0" width="8" height="3"><path fill-rule="evenodd" clip-rule="evenodd" d="M5.422.436c-.601.31-1.204.617-1.806.924-.602.306-1.202.614-1.806.92.708-.36 1.687-.31 2.771.241L8.193.678C7.562.358 6.968.206 6.44.206c-.38 0-.724.079-1.02.23z" fill="#fff"/></mask><g mask="url(#mask5_0_1514)"><path fill-rule="evenodd" clip-rule="evenodd" d="M2.266 2.117L5.876.272a1.55 1.55 0 01.192-.037L2.457 2.08a2.28 2.28 0 00-.191.038z" fill="#1D2732"/></g><mask id="mask6_0_1514" style="mask-type:alpha" maskUnits="userSpaceOnUse" x="1" y="0" width="8" height="3"><path fill-rule="evenodd" clip-rule="evenodd" d="M5.422.436c-.601.31-1.204.617-1.806.924-.602.306-1.202.614-1.806.92.708-.36 1.687-.31 2.771.241L8.193.678C7.562.358 6.968.206 6.44.206c-.38 0-.724.079-1.02.23z" fill="#fff"/></mask><g mask="url(#mask6_0_1514)"><path fill-rule="evenodd" clip-rule="evenodd" d="M2.456 2.078L6.068.234c.064-.01.133-.016.199-.022l-3.61 1.845a2.51 2.51 0 00-.2.021z" fill="#1D2934"/></g><mask id="mask7_0_1514" style="mask-type:alpha" maskUnits="userSpaceOnUse" x="1" y="0" width="8" height="3"><path fill-rule="evenodd" clip-rule="evenodd" d="M5.422.436c-.601.31-1.204.617-1.806.924-.602.306-1.202.614-1.806.92.708-.36 1.687-.31 2.771.241L8.193.678C7.562.358 6.968.206 6.44.206c-.38 0-.724.079-1.02.23z" fill="#fff"/></mask><g mask="url(#mask7_0_1514)"><path fill-rule="evenodd" clip-rule="evenodd" d="M2.657 2.057L6.267.213c.07-.006.14-.007.211-.007l-3.61 1.845a2.83 2.83 0 00-.21.006z" fill="#1E2A35"/></g><mask id="mask8_0_1514" style="mask-type:alpha" maskUnits="userSpaceOnUse" x="1" y="0" width="8" height="3"><path fill-rule="evenodd" clip-rule="evenodd" d="M5.422.436c-.601.31-1.204.617-1.806.924-.602.306-1.202.614-1.806.92.708-.36 1.687-.31 2.771.241L8.193.678C7.562.358 6.968.206 6.44.206c-.38 0-.724.079-1.02.23z" fill="#fff"/></mask><g mask="url(#mask8_0_1514)"><path fill-rule="evenodd" clip-rule="evenodd" d="M2.868 2.05L6.478.207c.074.002.15.007.226.012L3.093 2.063a3.368 3.368 0 00-.225-.012z" fill="#1F2B37"/></g><mask id="mask9_0_1514" style="mask-type:alpha" maskUnits="userSpaceOnUse" x="1" y="0" width="8" height="3"><path fill-rule="evenodd" clip-rule="evenodd" d="M5.422.436c-.601.31-1.204.617-1.806.924-.602.306-1.202.614-1.806.92.708-.36 1.687-.31 2.771.241L8.193.678C7.562.358 6.968.206 6.44.206c-.38 0-.724.079-1.02.23z" fill="#fff"/></mask><g mask="url(#mask9_0_1514)"><path fill-rule="evenodd" clip-rule="evenodd" d="M3.093 2.064L6.703.219c.082.007.164.018.247.031L3.339 2.095a4.203 4.203 0 00-.246-.031z" fill="#202C38"/></g><mask id="mask10_0_1514" style="mask-type:alpha" maskUnits="userSpaceOnUse" x="1" y="0" width="8" height="3"><path fill-rule="evenodd" clip-rule="evenodd" d="M5.422.436c-.601.31-1.204.617-1.806.924-.602.306-1.202.614-1.806.92.708-.36 1.687-.31 2.771.241L8.193.678C7.562.358 6.968.206 6.44.206c-.38 0-.724.079-1.02.23z" fill="#fff"/></mask><g mask="url(#mask10_0_1514)"><path fill-rule="evenodd" clip-rule="evenodd" d="M3.34 2.096L6.95.252c.092.015.184.035.279.058L3.617 2.155c-.094-.024-.187-.041-.278-.059z" fill="#212D3A"/></g><path fill-rule="evenodd" clip-rule="evenodd" d="M5.422.436c-.601.31-1.204.617-1.806.924-.602.306-1.202.614-1.806.92.708-.36 1.687-.31 2.771.241L8.193.678C7.562.358 6.968.206 6.44.206c-.38 0-.724.079-1.02.23z" fill="#250F8A"/><mask id="mask11_0_1514" style="mask-type:alpha" maskUnits="userSpaceOnUse" x="1" y="0" width="8" height="3"><path fill-rule="evenodd" clip-rule="evenodd" d="M5.422.436c-.601.31-1.204.617-1.806.924-.602.306-1.202.614-1.806.92.708-.36 1.687-.31 2.771.241L8.193.678C7.562.358 6.968.206 6.44.206c-.38 0-.724.079-1.02.23z" fill="#fff"/></mask><g mask="url(#mask11_0_1514)"><path fill-rule="evenodd" clip-rule="evenodd" d="M3.617 2.157L7.228.313c.108.027.216.06.327.096L3.943 2.255a4.68 4.68 0 00-.326-.098z" fill="#250F8A"/></g><path fill-rule="evenodd" clip-rule="evenodd" d="M3.944 2.25L7.554.406c.147.05.296.109.448.18L4.39 2.431a4.54 4.54 0 00-.447-.18z" fill="#250F8A"/><path fill-rule="evenodd" clip-rule="evenodd" d="M4.391 2.43L8.001.586c.065.028.126.058.192.092L4.581 2.522c-.064-.032-.126-.065-.19-.092z" fill="#250F8A"/><mask id="mask12_0_1514" style="mask-type:alpha" maskUnits="userSpaceOnUse" x="98" y="100" width="6" height="5"><path fill-rule="evenodd" clip-rule="evenodd" d="M99.398 102.225c0 1.133-.456 1.93-1.19 2.306a94.47 94.47 0 00.758-.389c.507-.257 1.012-.516 1.518-.775.442-.225.885-.45 1.326-.676l.191-.097c.733-.376 1.187-1.172 1.19-2.307" fill="#fff"/></mask><g mask="url(#mask12_0_1514)"><path fill-rule="evenodd" clip-rule="evenodd" d="M99.4 102.225l3.791-1.938c-.002 1.135-.458 1.932-1.19 2.307l-3.792 1.936c.733-.375 1.188-1.172 1.19-2.305z" fill="#250F8A"/></g><path fill-rule="evenodd" clip-rule="evenodd" d="M99.785 54.655l3.568-1.825-.151 47.434-3.57 1.827.153-47.436zM4.87 2.495L8.438.67 99.52 46.98l-3.57 1.826L4.87 2.495z" fill="#250F8A"/><mask id="mask13_0_1514" style="mask-type:alpha" maskUnits="userSpaceOnUse" x="96" y="46" width="8" height="9"><path fill-rule="evenodd" clip-rule="evenodd" d="M96.13 48.525c2.076 1.092 3.748 3.732 3.743 5.907l3.481-1.844c.006-2.175-1.666-4.815-3.742-5.907" fill="#fff"/></mask><g mask="url(#mask13_0_1514)"><path fill-rule="evenodd" clip-rule="evenodd" d="M96.13 48.525l3.482-1.845a6.374 6.374 0 011.482 1.099l-3.482 1.844a6.404 6.404 0 00-1.482-1.098z" fill="#23313E"/></g><mask id="mask14_0_1514" style="mask-type:alpha" maskUnits="userSpaceOnUse" x="96" y="46" width="8" height="9"><path fill-rule="evenodd" clip-rule="evenodd" d="M96.13 48.525c2.076 1.092 3.748 3.732 3.743 5.907l3.481-1.844c.006-2.175-1.666-4.815-3.742-5.907" fill="#fff"/></mask><g mask="url(#mask14_0_1514)"><path fill-rule="evenodd" clip-rule="evenodd" d="M97.612 49.623l3.481-1.844c.125.12.246.247.363.379l-3.482 1.844a7.138 7.138 0 00-.362-.38z" fill="#22303D"/></g><mask id="mask15_0_1514" style="mask-type:alpha" maskUnits="userSpaceOnUse" x="96" y="46" width="8" height="9"><path fill-rule="evenodd" clip-rule="evenodd" d="M96.13 48.525c2.076 1.092 3.748 3.732 3.743 5.907l3.481-1.844c.006-2.175-1.666-4.815-3.742-5.907" fill="#fff"/></mask><g mask="url(#mask15_0_1514)"><path fill-rule="evenodd" clip-rule="evenodd" d="M97.974 50.002l3.481-1.844c.095.103.184.21.272.319l-3.482 1.845a6.957 6.957 0 00-.27-.32z" fill="#222E3B"/></g><mask id="mask16_0_1514" style="mask-type:alpha" maskUnits="userSpaceOnUse" x="96" y="46" width="8" height="9"><path fill-rule="evenodd" clip-rule="evenodd" d="M96.13 48.525c2.076 1.092 3.748 3.732 3.743 5.907l3.481-1.844c.006-2.175-1.666-4.815-3.742-5.907" fill="#fff"/></mask><g mask="url(#mask16_0_1514)"><path fill-rule="evenodd" clip-rule="evenodd" d="M98.244 50.322l3.483-1.845c.076.095.15.19.221.29l-3.48 1.844a8.043 8.043 0 00-.224-.29z" fill="#212D3A"/></g><mask id="mask17_0_1514" style="mask-type:alpha" maskUnits="userSpaceOnUse" x="96" y="46" width="8" height="9"><path fill-rule="evenodd" clip-rule="evenodd" d="M96.13 48.525c2.076 1.092 3.748 3.732 3.743 5.907l3.481-1.844c.006-2.175-1.666-4.815-3.742-5.907" fill="#fff"/></mask><g mask="url(#mask17_0_1514)"><path fill-rule="evenodd" clip-rule="evenodd" d="M98.468 50.611l3.481-1.844c.066.09.13.181.192.272l-3.482 1.846a9.331 9.331 0 00-.192-.274z" fill="#202C38"/></g><mask id="mask18_0_1514" style="mask-type:alpha" maskUnits="userSpaceOnUse" x="96" y="46" width="8" height="9"><path fill-rule="evenodd" clip-rule="evenodd" d="M96.13 48.525c2.076 1.092 3.748 3.732 3.743 5.907l3.481-1.844c.006-2.175-1.666-4.815-3.742-5.907" fill="#fff"/></mask><g mask="url(#mask18_0_1514)"><path fill-rule="evenodd" clip-rule="evenodd" d="M98.66 50.884l3.48-1.844c.061.088.118.176.173.266l-3.483 1.845a6.728 6.728 0 00-.17-.267z" fill="#1F2B37"/></g><mask id="mask19_0_1514" style="mask-type:alpha" maskUnits="userSpaceOnUse" x="96" y="46" width="8" height="9"><path fill-rule="evenodd" clip-rule="evenodd" d="M96.13 48.525c2.076 1.092 3.748 3.732 3.743 5.907l3.481-1.844c.006-2.175-1.666-4.815-3.742-5.907" fill="#fff"/></mask><g mask="url(#mask19_0_1514)"><path fill-rule="evenodd" clip-rule="evenodd" d="M98.83 51.15l3.483-1.844c.053.086.104.173.154.261l-3.482 1.844a6.114 6.114 0 00-.155-.26z" fill="#1E2A35"/></g><mask id="mask20_0_1514" style="mask-type:alpha" maskUnits="userSpaceOnUse" x="96" y="46" width="8" height="9"><path fill-rule="evenodd" clip-rule="evenodd" d="M96.13 48.525c2.076 1.092 3.748 3.732 3.743 5.907l3.481-1.844c.006-2.175-1.666-4.815-3.742-5.907" fill="#fff"/></mask><g mask="url(#mask20_0_1514)"><path fill-rule="evenodd" clip-rule="evenodd" d="M98.985 51.41l3.482-1.843c.048.085.095.17.14.257l-3.481 1.846a6.49 6.49 0 00-.141-.26z" fill="#1D2934"/></g><mask id="mask21_0_1514" style="mask-type:alpha" maskUnits="userSpaceOnUse" x="96" y="46" width="8" height="9"><path fill-rule="evenodd" clip-rule="evenodd" d="M96.13 48.525c2.076 1.092 3.748 3.732 3.743 5.907l3.481-1.844c.006-2.175-1.666-4.815-3.742-5.907" fill="#fff"/></mask><g mask="url(#mask21_0_1514)"><path fill-rule="evenodd" clip-rule="evenodd" d="M99.125 51.67l3.481-1.846c.047.086.089.173.13.26l-3.483 1.843a9.095 9.095 0 00-.128-.258z" fill="#1D2732"/></g><mask id="mask22_0_1514" style="mask-type:alpha" maskUnits="userSpaceOnUse" x="96" y="46" width="8" height="9"><path fill-rule="evenodd" clip-rule="evenodd" d="M96.13 48.525c2.076 1.092 3.748 3.732 3.743 5.907l3.481-1.844c.006-2.175-1.666-4.815-3.742-5.907" fill="#fff"/></mask><g mask="url(#mask22_0_1514)"><path fill-rule="evenodd" clip-rule="evenodd" d="M99.254 51.928l3.481-1.845c.042.087.082.175.119.263l-3.483 1.846a5.99 5.99 0 00-.117-.264z" fill="#1C2631"/></g><mask id="mask23_0_1514" style="mask-type:alpha" maskUnits="userSpaceOnUse" x="96" y="46" width="8" height="9"><path fill-rule="evenodd" clip-rule="evenodd" d="M96.13 48.525c2.076 1.092 3.748 3.732 3.743 5.907l3.481-1.844c.006-2.175-1.666-4.815-3.742-5.907" fill="#fff"/></mask><g mask="url(#mask23_0_1514)"><path fill-rule="evenodd" clip-rule="evenodd" d="M99.37 52.192l3.484-1.846c.038.09.073.179.108.268l-3.482 1.845c-.034-.09-.07-.18-.11-.267z" fill="#1B252F"/></g><mask id="mask24_0_1514" style="mask-type:alpha" maskUnits="userSpaceOnUse" x="96" y="46" width="8" height="9"><path fill-rule="evenodd" clip-rule="evenodd" d="M96.13 48.525c2.076 1.092 3.748 3.732 3.743 5.907l3.481-1.844c.006-2.175-1.666-4.815-3.742-5.907" fill="#fff"/></mask><g mask="url(#mask24_0_1514)"><path fill-rule="evenodd" clip-rule="evenodd" d="M99.48 52.459l3.482-1.845c.035.092.068.184.098.276l-3.483 1.846a4.727 4.727 0 00-.097-.277z" fill="#1A242E"/></g><mask id="mask25_0_1514" style="mask-type:alpha" maskUnits="userSpaceOnUse" x="96" y="46" width="8" height="9"><path fill-rule="evenodd" clip-rule="evenodd" d="M96.13 48.525c2.076 1.092 3.748 3.732 3.743 5.907l3.481-1.844c.006-2.175-1.666-4.815-3.742-5.907" fill="#fff"/></mask><g mask="url(#mask25_0_1514)"><path fill-rule="evenodd" clip-rule="evenodd" d="M99.578 52.735l3.482-1.844c.033.096.063.195.09.293l-3.481 1.844a5.674 5.674 0 00-.091-.293z" fill="#19232C"/></g><mask id="mask26_0_1514" style="mask-type:alpha" maskUnits="userSpaceOnUse" x="96" y="46" width="8" height="9"><path fill-rule="evenodd" clip-rule="evenodd" d="M96.13 48.525c2.076 1.092 3.748 3.732 3.743 5.907l3.481-1.844c.006-2.175-1.666-4.815-3.742-5.907" fill="#fff"/></mask><g mask="url(#mask26_0_1514)"><path fill-rule="evenodd" clip-rule="evenodd" d="M99.668 53.029l3.481-1.845c.031.106.057.212.081.317l-3.482 1.846a6.16 6.16 0 00-.08-.318z" fill="#18222B"/></g><mask id="mask27_0_1514" style="mask-type:alpha" maskUnits="userSpaceOnUse" x="96" y="46" width="8" height="9"><path fill-rule="evenodd" clip-rule="evenodd" d="M96.13 48.525c2.076 1.092 3.748 3.732 3.743 5.907l3.481-1.844c.006-2.175-1.666-4.815-3.742-5.907" fill="#fff"/></mask><g mask="url(#mask27_0_1514)"><path fill-rule="evenodd" clip-rule="evenodd" d="M99.748 53.346l3.482-1.844c.026.12.049.237.067.356l-3.481 1.846a6.268 6.268 0 00-.068-.358z" fill="#182029"/></g><path fill-rule="evenodd" clip-rule="evenodd" d="M96.13 48.525c2.076 1.092 3.748 3.732 3.743 5.907l3.481-1.844c.006-2.175-1.666-4.815-3.742-5.907" fill="#250F8A"/><mask id="mask28_0_1514" style="mask-type:alpha" maskUnits="userSpaceOnUse" x="96" y="46" width="8" height="9"><path fill-rule="evenodd" clip-rule="evenodd" d="M96.13 48.525c2.076 1.092 3.748 3.732 3.743 5.907l3.481-1.844c.006-2.175-1.666-4.815-3.742-5.907" fill="#fff"/></mask><g mask="url(#mask28_0_1514)"><path fill-rule="evenodd" clip-rule="evenodd" d="M99.815 53.703l3.482-1.844a5.5 5.5 0 01.048.441l-3.482 1.845a4.904 4.904 0 00-.048-.442z" fill="#250F8A"/></g><path fill-rule="evenodd" clip-rule="evenodd" d="M99.863 54.145l3.482-1.845c.006.097.008.192.008.287l-3.48 1.844c0-.093-.004-.19-.01-.286z" fill="#250F8A"/><path fill-rule="evenodd" clip-rule="evenodd" d="M95.909 49.087c2.128 1.081 3.841 3.696 3.834 5.848l-.152 47.436c-.007 2.152-1.732 3.018-3.86 1.936L4.65 57.995C2.523 56.914.809 54.298.816 52.146L.968 4.711c.007-2.151 1.733-3.018 3.86-1.936l91.08 46.312z" fill="#0AD7DD"/><path fill-rule="evenodd" clip-rule="evenodd" d="M95.348 52.795L7.618 8.186l-.121 43.085 87.712 44.592.139-43.068zM38.95 35.153l.023-7.137 51.78 26.328-.023 7.137-51.78-26.328zm-27.478-13.97l.023-7.138L34.24 25.608l-.022 7.139-.096 29.81-22.746-11.568.097-29.807zm27.38 43.777l.098-29.807 51.78 26.328-.097 29.808-51.78-26.329z" fill="#fff"/><path fill-rule="evenodd" clip-rule="evenodd" d="M53.929 78.97l-7.454-3.789-.007 1.883 7.455 3.79.006-1.884z" fill="#250F8A"/><path fill-rule="evenodd" clip-rule="evenodd" d="M34.239 25.608L11.495 14.045l-.022 7.137 22.744 11.565.022-7.139zm-5.507 2.843l.014-4.135 4.086 2.078-.014 4.134-4.086-2.077zm-5.527-2.81l.013-4.136 4.086 2.077-.013 4.136-4.086-2.077zm-5.528-2.811l.013-4.135 4.086 2.077-.013 4.135-4.086-2.078z" fill="#FA7564"/><path fill-rule="evenodd" clip-rule="evenodd" d="M34.217 32.747L11.473 21.182l-.097 29.807L34.12 62.556l.097-29.81zm-21.485-.577l.022-6.962 20.049 10.196-.022 6.96L12.73 32.17zm-.055 16.854l.007-1.786L32.732 57.43l-.006 1.787-20.049-10.194zM90.73 61.48L38.95 35.154l-.098 29.808 51.78 26.33.097-29.81zM40.363 46.22l.023-6.96 48.895 24.86-.022 6.961L40.364 46.22zm-.012 3.573l.005-1.787L89.254 72.87l-.005 1.786-48.897-24.862zm-.011 3.578l.006-1.786 48.896 24.862-.006 1.787L40.341 53.37zm-.03 8.814l.023-6.963L89.23 80.085l-.022 6.961-48.897-24.86z" fill="#E5FDFD"/><path fill-rule="evenodd" clip-rule="evenodd" d="M90.752 54.343l-51.78-26.327-.023 7.137 51.78 26.328.023-7.138zm-5.54 2.826l.014-4.135 4.086 2.078-.013 4.134-4.087-2.077zm-5.527-2.81l.013-4.135 4.086 2.078-.014 4.134-4.085-2.077zm-5.528-2.811l.013-4.136 4.086 2.078-.014 4.135-4.085-2.077z" fill="#FA7564"/><path fill-rule="evenodd" clip-rule="evenodd" d="M89.312 55.111l-4.086-2.077-.014 4.135 4.087 2.078.013-4.136z" fill="#FFCA00"/><path fill-rule="evenodd" clip-rule="evenodd" d="M83.784 52.302l-4.086-2.077-.014 4.134 4.086 2.077.014-4.134zm-5.529-2.812l-4.086-2.077-.012 4.136 4.086 2.076.012-4.135z" fill="#fff"/><path fill-rule="evenodd" clip-rule="evenodd" d="M32.832 26.394l-4.086-2.077-.014 4.134 4.086 2.077.014-4.134z" fill="#FFCA00"/><path fill-rule="evenodd" clip-rule="evenodd" d="M27.305 23.583l-4.086-2.077-.014 4.136 4.086 2.076.014-4.135zm-5.529-2.811l-4.087-2.077-.012 4.135 4.085 2.077.014-4.135zm11.027 14.632L12.754 25.209l-.022 6.962L32.78 42.363l.023-6.96zm56.48 28.717L40.387 39.26l-.023 6.96L89.26 71.082l.023-6.96zm-.051 15.964L40.334 55.223l-.022 6.962 48.896 24.861.024-6.96z" fill="#fff"/><path fill-rule="evenodd" clip-rule="evenodd" d="M32.732 57.432L12.684 47.237l-.007 1.787 20.049 10.194.006-1.786zm56.522 15.437L40.358 48.007l-.007 1.787 48.898 24.86.005-1.785zm-.012 3.578L40.346 51.585l-.005 1.786 48.897 24.863.004-1.787z" fill="#FFCA00"/><path fill-rule="evenodd" clip-rule="evenodd" d="M7.535 51.13l-2.28.983L5.4 6.822l2.256 1.15-.12 43.157z" fill="#172029"/><path fill-rule="evenodd" clip-rule="evenodd" d="M95.169 95.797l-.007 2.15L5.255 52.113l2.28-.984 87.634 44.668z" fill="#263442"/></svg>